<svg xmlns="http://www.w3.org/2000/svg" viewBox="0 0 546 632" width="546" height="632">
<g id="beige">
<path d="M 12 348 L 78 618 L 270 620 L 255 607 L 88 605 L 26 359 L 93 341 L 86 330 Z" fill="#c0ae91"/>
<path d="M 427 347 L 351 330 L 350 342 L 415 361 L 354 604 L 281 607 L 296 620 L 363 619 Z" fill="#c0ae91"/>
</g>
<g id="red">
<path d="M 41 413 L 46 428 L 188 507 L 211 496 L 168 416 L 147 399 L 198 496 L 118 453 L 139 376 L 59 421 Z" fill="#892421"/>
<path d="M 198 198 L 258 200 L 286 229 L 288 220 L 277 209 L 279 207 L 308 218 L 315 246 L 323 253 L 318 218 L 313 211 L 260 192 L 211 192 Z" fill="#892421"/>
<path d="M 305 378 L 305 388 L 315 396 L 325 438 L 335 433 L 328 406 L 330 403 L 361 421 L 372 415 L 309 378 Z" fill="#892421"/>
<path d="M 296 401 L 277 416 L 245 477 L 246 479 L 262 470 L 297 402 Z" fill="#892421"/>
<path d="M 168 203 L 147 222 L 145 265 L 143 272 L 143 304 L 148 304 L 150 301 L 155 225 L 172 208 Z" fill="#892421"/>
<path d="M 199 437 L 198 438 L 228 486 L 231 487 L 239 482 L 238 479 L 215 443 L 212 440 Z" fill="#892421"/>
</g>
<g id="gray">
<path d="M 193 165 L 132 208 L 92 275 L 96 326 L 115 359 L 141 370 L 146 398 L 197 436 L 240 445 L 333 355 L 353 289 L 289 220 L 292 276 L 274 265 L 235 287 L 245 327 L 211 318 L 210 334 L 176 350 L 148 305 L 118 313 L 142 284 L 112 303 L 146 234 L 133 233 L 141 211 L 254 174 L 310 208 L 260 166 Z M 178 380 L 176 382 L 176 383 L 175 384 L 172 391 L 170 393 L 168 398 L 165 401 L 163 399 L 162 399 L 154 393 L 154 392 L 155 391 L 156 391 L 158 389 L 161 388 L 163 386 L 170 383 L 172 381 L 173 381 L 176 379 L 177 379 Z M 189 376 L 228 433 L 227 434 L 200 428 L 172 406 Z M 270 375 L 292 392 L 249 427 L 248 425 Z M 204 367 L 216 376 L 246 376 L 256 367 L 262 370 L 248 407 L 236 431 L 196 371 Z M 213 364 L 216 362 L 218 362 L 221 360 L 224 360 L 225 359 L 237 359 L 247 364 L 244 367 L 242 368 L 218 368 L 216 367 Z M 304 326 L 311 335 L 311 336 L 314 339 L 314 340 L 317 343 L 319 347 L 322 350 L 322 352 L 321 353 L 313 357 L 311 357 L 306 360 L 304 360 L 303 359 L 303 327 Z M 149 326 L 173 360 L 221 337 L 227 340 L 241 337 L 278 360 L 294 332 L 295 382 L 261 360 L 238 351 L 224 351 L 150 384 Z M 140 325 L 141 326 L 141 360 L 139 361 L 134 358 L 132 358 L 127 355 L 125 355 L 122 352 L 125 349 L 126 346 Z M 134 316 L 135 317 L 134 320 L 126 331 L 125 334 L 117 346 L 112 339 L 106 327 L 110 324 L 112 324 L 113 323 L 118 322 L 121 320 L 123 320 L 124 319 L 126 319 L 127 318 Z M 303 298 L 331 331 L 331 335 L 327 344 L 304 312 L 302 306 L 302 299 Z M 308 289 L 310 290 L 319 290 L 320 291 L 340 292 L 343 294 L 340 303 L 340 306 L 336 316 L 336 319 L 334 322 L 316 300 L 309 293 L 307 290 Z M 274 273 L 293 289 L 295 312 L 275 349 L 250 334 L 254 330 L 252 318 L 246 311 L 244 298 L 245 292 L 270 292 L 281 298 L 284 292 L 272 284 L 249 283 L 254 277 Z M 114 265 L 115 266 L 115 267 L 114 268 L 114 270 L 113 271 L 113 274 L 112 275 L 112 277 L 111 278 L 111 280 L 110 281 L 110 284 L 109 285 L 109 287 L 108 288 L 108 290 L 107 291 L 106 291 L 105 290 L 105 288 L 104 287 L 104 285 L 103 284 L 103 282 L 102 281 L 101 278 Z M 298 242 L 336 283 L 335 284 L 302 281 L 300 279 L 298 251 L 297 250 L 297 243 Z M 185 192 L 196 173 L 232 173 L 233 174 L 197 189 L 192 190 L 186 193 Z" fill="#555553" fill-rule="evenodd"/>
<path d="M 403 402 L 81 563 L 82 575 L 160 537 L 272 619 L 293 620 L 173 531 L 398 417 Z" fill="#555553" fill-rule="evenodd"/>
<path d="M 179 264 L 165 276 L 169 283 L 181 273 L 202 277 L 208 283 L 183 284 L 166 294 L 170 299 L 183 292 L 205 291 L 206 293 L 195 306 L 202 310 L 220 288 L 209 271 Z" fill="#555553" fill-rule="evenodd"/>
</g>
</svg>